<svg width="197" height="84" fill="none" xmlns="http://www.w3.org/2000/svg"><path d="M92.877 38.224V2.205h16.157c4.15 0 7.341.84 9.57 2.521 2.23 1.647 3.345 3.911 3.345 6.792 0 1.956-.446 3.602-1.338 4.94-.858 1.338-2.024 2.367-3.499 3.088-1.475.72-3.07 1.08-4.785 1.08l.926-1.544c2.058 0 3.876.36 5.454 1.081 1.578.72 2.83 1.784 3.756 3.19.927 1.372 1.39 3.087 1.39 5.146 0 3.087-1.167 5.488-3.499 7.203-2.299 1.681-5.729 2.522-10.291 2.522H92.877Zm5.145-4.168h11.835c2.847 0 5.025-.48 6.535-1.44 1.509-.961 2.264-2.47 2.264-4.529 0-2.092-.755-3.619-2.264-4.58-1.51-.96-3.688-1.44-6.535-1.44H97.559v-4.168h11.012c2.607 0 4.631-.48 6.071-1.44 1.441-.961 2.161-2.402 2.161-4.323 0-1.921-.72-3.362-2.161-4.322-1.44-.96-3.464-1.441-6.071-1.441H98.022v27.683Zm33.798 4.168V2.205h5.145v36.019h-5.145Zm32.189.411c-2.745 0-5.3-.463-7.667-1.389-2.333-.926-4.357-2.213-6.072-3.859a18.222 18.222 0 0 1-4.013-5.866c-.961-2.23-1.441-4.665-1.441-7.307 0-2.64.48-5.076 1.441-7.306a17.643 17.643 0 0 1 4.013-5.815c1.715-1.68 3.739-2.984 6.072-3.91 2.333-.926 4.888-1.39 7.667-1.39 2.744 0 5.265.464 7.564 1.39 2.332.892 4.356 2.178 6.071 3.859a16.674 16.674 0 0 1 4.014 5.814c.96 2.23 1.441 4.683 1.441 7.358 0 2.676-.481 5.129-1.441 7.359a17.197 17.197 0 0 1-4.014 5.865c-1.715 1.647-3.739 2.933-6.071 3.86-2.299.891-4.82 1.337-7.564 1.337Zm0-4.58c1.989 0 3.825-.342 5.505-1.028 1.716-.686 3.191-1.647 4.426-2.882a13.318 13.318 0 0 0 2.933-4.425c.72-1.68 1.08-3.516 1.08-5.506 0-1.99-.36-3.824-1.08-5.505a12.769 12.769 0 0 0-2.933-4.374c-1.235-1.27-2.71-2.247-4.426-2.933-1.68-.686-3.516-1.029-5.505-1.029-2.024 0-3.894.343-5.609 1.03a13.297 13.297 0 0 0-4.425 2.932 13.388 13.388 0 0 0-2.984 4.374c-.687 1.68-1.03 3.516-1.03 5.505 0 1.99.343 3.825 1.03 5.506a13.983 13.983 0 0 0 2.984 4.425 13.702 13.702 0 0 0 4.425 2.882c1.715.686 3.585 1.029 5.609 1.029Zm-57.568 47.538c-2.416 0-4.651-.4-6.705-1.2-2.023-.832-3.79-1.987-5.3-3.466a16.757 16.757 0 0 1-3.488-5.267c-.846-2.001-1.269-4.204-1.269-6.606s.423-4.604 1.269-6.606a15.856 15.856 0 0 1 3.533-5.22 15.456 15.456 0 0 1 5.3-3.466c2.054-.831 4.289-1.247 6.705-1.247 2.447 0 4.697.431 6.75 1.294a13.625 13.625 0 0 1 5.301 3.742l-2.945 2.91c-1.208-1.294-2.567-2.248-4.077-2.864-1.51-.647-3.126-.97-4.847-.97-1.782 0-3.443.308-4.984.924a11.924 11.924 0 0 0-3.941 2.587c-1.117 1.108-1.993 2.433-2.627 3.973-.605 1.509-.907 3.157-.907 4.943 0 1.786.302 3.45.906 4.99a12.035 12.035 0 0 0 2.628 3.926 11.925 11.925 0 0 0 3.941 2.588c1.541.616 3.202.924 4.984.924 1.721 0 3.337-.308 4.847-.924 1.51-.647 2.869-1.633 4.077-2.957l2.945 2.91c-1.45 1.663-3.217 2.926-5.301 3.789-2.053.862-4.318 1.293-6.795 1.293Zm25.543-.369-10.601-32.34h4.666l9.74 29.845h-2.356l10.103-29.844h4.168l9.875 29.844h-2.265l9.876-29.844h4.304l-10.601 32.339h-4.756l-9.242-27.673h1.223l-9.287 27.673h-4.847Zm49.659 0v-28.32H170.77v-4.02H197v4.02h-10.872v28.32h-4.485Z" fill="#F5F5F5"/><path d="M71.31 2.014C34.916 31.29-21.755 76.95 82.186 51.165" stroke="#F5F5F5" stroke-linecap="round"/><path d="M77.353 2.417C51.03 26.59 4.835 68.087 82.187 45.122" stroke="#F5F5F5" stroke-linecap="round"/><path d="M81.784 8.057c-18.398 16.921-44.155 47.298 0 31.828" stroke="#F5F5F5" stroke-linecap="round"/><path d="M82.187 21.352c-7.655 6.043-22.964 22.964 0 11.684M2.014 59.223c-1.208-5.372 4.27-18.29 18.13-26.993 17.324-10.878 20.144-5.64 40.69-30.216" stroke="#F5F5F5" stroke-linecap="round"/><path d="M2.014 35.453C27.8 24.173 66.153 1.047 13.295 2.014" stroke="#F5F5F5" stroke-linecap="round"/><path d="M7.655 2.417c16.115 2.955 43.913 8.46-6.043 27.799" stroke="#F5F5F5" stroke-linecap="round"/><path d="M1.612 10.878c14.1 1.074 37.064 1.611 0 11.28m80.172 39.079c-9.4 0-33.278.403-42.302 8.46-9.024 8.058-28.739-4.565-37.87-12.086" stroke="#F5F5F5" stroke-linecap="round"/><path d="M47.942 81.784c3.358-6.715 6.85-19.741 33.842-14.907" stroke="#F5F5F5" stroke-linecap="round"/><path d="M61.64 81.784c.672-6.446 2.82-17.727 20.144-9.67M2.417 70.503c9.67.269 33.842 4.835 12.087 11.281" stroke="#F5F5F5" stroke-linecap="round"/><path d="M2.014 76.144c6.715-1.209 22.159-1.209 7.252 5.64" stroke="#F5F5F5" stroke-linecap="round"/><rect x="2" y="2" width="79.799" height="79.799" rx="9" stroke="#F5F5F5" stroke-width="4"/></svg>