<svg width="40" height="40" fill="none" xmlns="http://www.w3.org/2000/svg"><path d="M23.629 3.402a1.544 1.544 0 0 1 1.914-1.094 17.187 17.187 0 0 1 12.148 12.149 1.541 1.541 0 0 1-1.093 1.914 1.483 1.483 0 0 1-.41.059 1.562 1.562 0 0 1-1.504-1.172 14.18 14.18 0 0 0-9.942-9.942 1.543 1.543 0 0 1-1.113-1.914Zm-.508 7.95a7.89 7.89 0 0 1 5.527 5.527 1.544 1.544 0 0 0 1.504 1.172c.133 0 .265-.019.391-.059a1.54 1.54 0 0 0 1.113-1.914 10.898 10.898 0 0 0-7.734-7.734 1.562 1.562 0 1 0-.8 3.007Zm16.113 18.847a10.976 10.976 0 0 1-10.859 9.55C12.867 39.75.25 27.134.25 11.626A10.977 10.977 0 0 1 9.8.765a3.183 3.183 0 0 1 3.262 1.875l3.926 9.16a3.106 3.106 0 0 1-.273 2.95l-3.242 4.96a14.94 14.94 0 0 0 6.875 6.837l4.902-3.262a3.048 3.048 0 0 1 2.95-.254l9.16 3.906a3.183 3.183 0 0 1 1.874 3.262Zm-3.105-.39-9.16-3.907-4.883 3.262a3.124 3.124 0 0 1-3.066.215 18.066 18.066 0 0 1-8.36-8.32 3.125 3.125 0 0 1 .195-3.067l3.262-4.96-3.926-9.161a7.812 7.812 0 0 0-6.816 7.754 25.02 25.02 0 0 0 25 25 7.813 7.813 0 0 0 7.754-6.817Z" fill="#F5F5F5"/></svg>